<svg xmlns="http://www.w3.org/2000/svg" width="250" height="207">
  <path fill="#000" d="M5.16 122L7.26 122L7.26 93.21C7.26 83.84 11.99 77.10 19.64 77.10C21.91 77.10 23.59 77.66 24.62 78.17L24.62 75.98C23.72 75.59 21.91 75.08 19.98 75.08C13.62 75.08 9.24 78.64 7.22 85.35L7.13 85.35L7.13 75.77L5.16 75.77ZM48.81 77.05C59.30 77.05 66.34 85.18 66.34 97.04L30.89 97.04C31.41 85.05 38.50 77.05 48.81 77.05ZM65.70 109.15C64.32 115.68 58.44 120.71 49.20 120.71C38.16 120.71 30.85 112.80 30.85 99.05L30.85 98.97L68.49 98.97L68.49 97.34C68.49 84.06 60.59 75.08 48.81 75.08C36.70 75.08 28.70 84.53 28.70 98.88C28.70 113.92 36.74 122.69 49.16 122.69C59.51 122.69 66.34 116.93 67.89 109.15ZM76.44"/>
  <path fill="#e05d44" d="M76.44 122L78.55 122L78.55 94.80C78.55 83.93 84.26 77.05 92.51 77.05C99.95 77.05 105.36 82.86 105.36 91.58L105.36 122L107.46 122L107.46 93.47C107.46 83.76 113.05 77.05 121.39 77.05C129.34 77.05 134.28 82.55 134.28 91.49L134.28 122L136.38 122L136.38 91.02C136.38 81.31 130.45 75.08 121.69 75.08C113.78 75.08 108.28 80.62 106.95 86.72L106.86 86.72C105.66 80.41 100.33 75.08 92.68 75.08C85.08 75.08 80.09 80.15 78.50 86.68L78.42 86.68L78.42 75.77L76.44 75.77ZM160.53 120.71C152.88 120.71 147.25 116.07 147.25 109.71C147.25 103.05 152.32 99.14 161.78 98.41L178.15 97.16L178.15 104.98C178.15 113.62 170.24 120.71 160.53 120.71ZM160.40 122.69C168.65 122.69 175.87 118.09 178.11 111.47L178.15 111.47L178.15 122L180.25 122L180.25 90.98C180.25 81.18 174.11 75.08 164.18 75.08C154.43 75.08 147.77 80.45 146.78 89.21L148.80 89.21C150.00 81.48 155.55 77.05 164.18 77.05C172.91 77.05 178.15 82.34 178.15 91.11L178.15 95.27L161.43 96.56C150.69 97.42 145.11 101.85 145.11 109.71C145.11 117.32 151.42 122.69 160.40 122.69ZM190.27 122L192.37 122L192.37 93.21C192.37 83.84 197.10 77.10 204.75 77.10C207.02 77.10 208.70 77.66 209.73 78.17L209.73 75.98C208.83 75.59 207.02 75.08 205.09 75.08C198.73 75.08 194.35 78.64 192.33 85.35L192.24 85.35L192.24 75.77L190.27 75.77ZM218.80 100.39L218.71 100.39L218.71 57.29L216.61 57.29L216.61 122L218.71 122L218.71 103.05L225.63 96.95L246.81 122L249.61 122L227.30 95.66L249.52 75.77L246.51 75.77Z"/>
</svg>
