<svg xmlns="http://www.w3.org/2000/svg" width="1012" height="300" viewBox="0 0 1012 300">
  <style>
    .b {fill: #0d1117}
    .l {fill: #fff}
    @media (prefers-color-scheme: light) {
      .b {fill: #fff}
      .l {fill: #0d1117}
    }
  </style>
  <rect class="b" x="0" y="0" width="1012" height="300" />
  <path fill="#d80303" d="M410.59 171.78L410.59 157.60Q410.59 151.13 413.61 147.29Q416.63 143.45 421.73 143.45L421.73 143.45Q423.02 143.45 424.42 143.69Q425.83 143.92 426.91 144.33L426.91 144.33L426.91 140.14Q426.18 139.82 424.94 139.63Q423.69 139.44 422.31 139.44L422.31 139.44Q417.71 139.44 414.73 141.74Q411.74 144.04 410.92 148.26L410.92 148.26L410.51 148.26L410.51 140.23L399.61 140.23L399.61 143.33L406.76 143.33L406.76 171.78L410.59 171.78ZM400.25 171.78L420.61 171.78L420.61 168.68L400.25 168.68L400.25 171.78ZM449.50 143.10L449.50 143.10Q453.69 143.10 456.05 145.96Q458.41 148.81 458.41 153.85L458.41 153.85L440.36 153.85Q440.36 148.78 442.79 145.94Q445.22 143.10 449.50 143.10ZM462.16 163.99L458.35 163.99Q457.62 166.30 455.39 167.59Q453.16 168.88 449.94 168.88L449.94 168.88Q445.55 168.88 442.95 165.97Q440.36 163.05 440.36 158.10L440.36 158.10L440.36 157.02L462.30 157.02L462.30 154.53Q462.30 149.81 460.79 146.50Q459.29 143.19 456.43 141.45Q453.57 139.70 449.50 139.70L449.50 139.70Q445.60 139.70 442.67 141.42Q439.75 143.13 438.13 146.22Q436.52 149.31 436.52 153.47L436.52 153.47L436.52 158.07Q436.52 164.81 440.05 168.56Q443.58 172.31 449.94 172.31L449.94 172.31Q453.13 172.31 455.70 171.28Q458.26 170.26 459.95 168.38Q461.63 166.51 462.16 163.99L462.16 163.99Z"/>
  <path class="l" d="M501.21 171.78L501.21 149.14Q501.21 144.45 499.47 142.08Q497.72 139.70 494.27 139.70L494.27 139.70Q491.83 139.70 489.99 140.99Q488.14 142.28 487.50 144.45L487.50 144.45L487.09 144.45Q486.59 142.19 485.05 140.95Q483.51 139.70 481.26 139.70L481.26 139.70Q479.09 139.70 477.46 140.98Q475.84 142.25 475.22 144.45L475.22 144.45L474.81 144.45L474.81 140.23L471.33 140.23L471.33 171.78L474.93 171.78L474.93 150.66Q474.93 147.17 476.29 145.17Q477.66 143.16 480.03 143.16L480.03 143.16Q482.28 143.16 483.41 144.87Q484.54 146.59 484.54 149.99L484.54 149.99L484.54 171.78L488.14 171.78L488.14 150.66Q488.14 147.14 489.48 145.15Q490.81 143.16 493.12 143.16L493.12 143.16Q495.35 143.16 496.48 144.89Q497.61 146.62 497.61 150.01L497.61 150.01L497.61 171.78L501.21 171.78ZM520.58 172.34L520.58 172.34Q524.15 172.34 526.68 170.92Q529.22 169.50 530.33 166.83L530.33 166.83L530.74 166.83L530.74 171.81L534.43 171.81L534.43 150.13Q534.43 145.33 531.46 142.65Q528.49 139.97 523.12 139.97L523.12 139.97Q520.08 139.97 517.60 141.01Q515.13 142.05 513.56 143.86Q511.99 145.68 511.70 148.05L511.70 148.05L515.51 148.05Q516.18 145.77 518.16 144.54Q520.14 143.31 523.12 143.31L523.12 143.31Q526.76 143.31 528.66 145.11Q530.57 146.91 530.57 150.31L530.57 150.31L530.57 153.30L521.42 153.71Q516.21 153.94 513.35 156.33Q510.50 158.72 510.50 162.88L510.50 162.88Q510.50 167.15 513.27 169.75Q516.03 172.34 520.58 172.34ZM521.51 168.94L521.51 168.94Q518.23 168.94 516.34 167.31Q514.45 165.69 514.45 162.88L514.45 162.88Q514.45 157.19 521.69 156.87L521.69 156.87L530.57 156.49L530.57 160.88Q530.57 163.14 529.36 164.97Q528.16 166.80 526.11 167.87Q524.06 168.94 521.51 168.94ZM558.95 171.78L558.95 157.60Q558.95 151.13 561.97 147.29Q564.99 143.45 570.09 143.45L570.09 143.45Q571.38 143.45 572.78 143.69Q574.19 143.92 575.27 144.33L575.27 144.33L575.27 140.14Q574.54 139.82 573.29 139.63Q572.05 139.44 570.67 139.44L570.67 139.44Q566.07 139.44 563.08 141.74Q560.10 144.04 559.28 148.26L559.28 148.26L558.87 148.26L558.87 140.23L547.97 140.23L547.97 143.33L555.12 143.33L555.12 171.78L558.95 171.78ZM548.61 171.78L568.97 171.78L568.97 168.68L548.61 168.68L548.61 171.78ZM606.65 140.23L591.83 155.08L591.47 155.08L591.47 127.66L587.64 127.66L587.64 171.78L591.47 171.78L591.47 159.83L597.07 154.38L598.01 153.47L611.51 140.23L606.65 140.23ZM598.53 151.71L595.75 154.20L607.76 171.78L612.39 171.78L598.53 151.71Z"/>
</svg>
